<?xml version="1.0" standalone="no"?><!DOCTYPE svg PUBLIC "-//W3C//DTD SVG 1.1//EN" "http://www.w3.org/Graphics/SVG/1.1/DTD/svg11.dtd"><svg t="1591104710993" class="icon" viewBox="0 0 1024 1024" version="1.1" xmlns="http://www.w3.org/2000/svg" p-id="2988" xmlns:xlink="http://www.w3.org/1999/xlink" width="200" height="200"><defs><style type="text/css"></style></defs><path d="M405.20192 487.60832H164.89984c-42.15808 0-77.29152-54.80448-77.29152-96.96256V170.01984c0-42.15808 35.13344-77.29152 77.29152-77.29152h240.30208c42.15808 0 77.29152 35.13344 77.29152 77.29152v238.89408c-0.00512 43.56608-35.13344 78.6944-77.29152 78.6944z m18.26816-299.32032c0-19.67616-15.45728-35.13344-35.13344-35.13344H180.35712c-18.26816 0-33.72544 15.45728-33.72544 35.13344v207.97952c0 19.67616 15.45728 35.13344 35.13344 35.13344h207.97952c19.67616 0 35.13344-15.45728 35.13344-35.13344V188.288h-1.408z m435.63008 299.32032h-240.30208c-42.15808 0-77.29152-54.80448-77.29152-96.96256V170.01984c0-42.15808 35.13344-77.29152 77.29152-77.29152h240.30208c42.15808 0 77.29152 35.13344 77.29152 77.29152v238.89408c-0.00512 43.56608-33.73056 78.6944-77.29152 78.6944z m18.26816-299.32032c0-19.67616-15.45728-35.13344-35.13344-35.13344h-206.57152c-19.67616 0-35.13344 15.45728-35.13344 35.13344v207.97952c0 19.67616 15.45728 35.13344 35.13344 35.13344h207.97952c19.67616 0 35.13344-15.45728 35.13344-35.13344V188.288h-1.408z m-18.26816 753.21856h-240.30208c-42.15808 0-77.29152-54.80448-77.29152-96.96256v-219.22304c0-42.15808 35.13344-77.29152 77.29152-77.29152h240.30208c42.15808 0 77.29152 35.13344 77.29152 77.29152v238.89408c-0.00512 42.1632-33.73056 77.29152-77.29152 77.29152z m18.26816-299.32032c0-19.67616-15.45728-35.13344-35.13344-35.13344h-206.57152c-19.67616 0-35.13344 15.45728-35.13344 35.13344v207.97952c0 19.67616 15.45728 35.13344 35.13344 35.13344h207.97952c19.67616 0 35.13344-15.45728 35.13344-35.13344v-207.97952h-1.408z m-472.1664 299.32032H164.89984c-42.15808 0-77.29152-54.80448-77.29152-96.96256v-219.22304c0-42.15808 35.13344-77.29152 77.29152-77.29152h240.30208c42.15808 0 77.29152 35.13344 77.29152 77.29152v238.89408c-0.00512 42.1632-35.13344 77.29152-77.29152 77.29152z m18.26816-299.32032c0-19.67616-15.45728-35.13344-35.13344-35.13344H180.35712c-19.67616 0-35.13344 15.45728-35.13344 35.13344v207.97952c0 19.67616 15.45728 35.13344 35.13344 35.13344h207.97952c19.67616 0 35.13344-15.45728 35.13344-35.13344v-207.97952z" fill="" p-id="2989"></path></svg>