<?xml version="1.0" standalone="no"?><!DOCTYPE svg PUBLIC "-//W3C//DTD SVG 1.1//EN" "http://www.w3.org/Graphics/SVG/1.1/DTD/svg11.dtd"><svg t="1591104842693" class="icon" viewBox="0 0 1024 1024" version="1.1" xmlns="http://www.w3.org/2000/svg" p-id="5904" xmlns:xlink="http://www.w3.org/1999/xlink" width="200" height="200"><defs><style type="text/css"></style></defs><path d="M746.3 572a285.61 285.61 0 0 0 66.39-183.47c0-158.4-128.41-286.8-286.8-286.8s-286.8 128.41-286.8 286.8A285.61 285.61 0 0 0 305.48 572c-116.54 73.35-194 203-194 350.92h828.9C940.34 775 862.84 645.33 746.3 572z" fill="#FED547" p-id="5905"></path><path d="M746.31 572a285.61 285.61 0 0 0 66.39-183.47c0-158.4-128.41-286.8-286.8-286.8a289.75 289.75 0 0 0-31.28 1.73C638.31 119 750.15 240.68 750.15 388.51A285.61 285.61 0 0 1 683.76 572c116.54 73.35 194 203 194 350.92h62.55c0.04-147.92-77.46-277.59-194-350.92z" fill="#E2B742" p-id="5906"></path><path d="M393.31 492.22a5.71 5.71 0 0 0 0.56 2.38c27.44 56 63 86.82 100.06 86.82S566.56 550.59 594 494.6a5.71 5.71 0 0 0 0.56-2.39 248.72 248.72 0 0 0 41.38-45.8 5.78 5.78 0 0 0-9.44-6.69c-37.1 52.33-84.18 81.15-132.57 81.15s-95.46-28.82-132.57-81.14a5.78 5.78 0 0 0-9.44 6.69 248.73 248.73 0 0 0 41.39 45.8z m100.62 40.23c27.65 0 54.78-8.64 80-24.93-23.59 40.37-51.59 62.34-80 62.34s-56.45-22-80-62.34c25.23 16.29 52.35 24.93 80.01 24.93z" fill="#28CA67" p-id="5907"></path><path d="M373.76 288.64a25.31 54.23 0 1 0 50.62 0 25.31 54.23 0 1 0-50.62 0Z" fill="#28CA67" p-id="5908"></path><path d="M567.53 288.64a25.31 54.23 0 1 0 50.62 0 25.31 54.23 0 1 0-50.62 0Z" fill="#28CA67" p-id="5909"></path><path d="M718.51 572a285.6 285.6 0 0 0 66.39-183.49c0-158.4-128.41-286.8-286.8-286.8s-286.8 128.41-286.8 286.8A285.61 285.61 0 0 0 277.69 572c-116.54 73.35-194 203-194 350.92h828.9C912.55 775 835 645.33 718.51 572zM222.86 388.51c0-151.77 123.47-275.24 275.24-275.24s275.23 123.47 275.23 275.24a275.59 275.59 0 0 1-54.8 164.71c-62.11 57.42-136.11 86.53-219.93 86.53-84.57 0-158.71-28.89-220.39-85.85a275.59 275.59 0 0 1-55.35-165.39z m61 193.26a11.51 11.51 0 0 0 4-4.3c60.26 49 131 73.88 210.76 73.88 78.86 0 149.28-25 209.73-74.07a11.51 11.51 0 0 0 4 4.49C827.18 654 897 776.6 900.82 911.33H95.38C99.17 776.6 169 654.05 283.85 581.77z" fill="#28CA67" p-id="5910"></path></svg>