<?xml version="1.0" standalone="no"?><!DOCTYPE svg PUBLIC "-//W3C//DTD SVG 1.1//EN" "http://www.w3.org/Graphics/SVG/1.1/DTD/svg11.dtd"><svg t="1591104811909" class="icon" viewBox="0 0 1024 1024" version="1.1" xmlns="http://www.w3.org/2000/svg" p-id="4858" xmlns:xlink="http://www.w3.org/1999/xlink" width="200" height="200"><defs><style type="text/css"></style></defs><path d="M784.402963 705.896296H377.362963c-9.860741 0-18.394074-6.731852-20.764444-16.308148l-86.850371-360.296296c-1.517037-6.352593-0.094815-13.084444 3.982222-18.204445 4.077037-5.12 10.24-8.154074 16.782223-8.154074h584.154074c6.542222 0 12.8 3.034074 16.782222 8.248889s5.499259 11.946667 3.887407 18.299259l-90.263703 360.296297c-2.37037 9.481481-10.903704 16.118519-20.66963 16.118518z m-390.257778-42.666666h373.570371l79.549629-317.62963H317.62963l76.515555 317.62963z" p-id="4859"></path><path d="M783.17037 801.185185H400.687407c-9.860741 0-18.394074-6.731852-20.764444-16.308148L230.115556 170.666667h-80.782223c-11.757037 0-21.333333-9.576296-21.333333-21.333334s9.576296-21.333333 21.333333-21.333333h97.46963c9.860741 0 18.394074 6.731852 20.764444 16.308148L417.46963 758.518519H783.17037c11.757037 0 21.333333 9.576296 21.333334 21.333333S794.927407 801.185185 783.17037 801.185185z" p-id="4860"></path><path d="M399.075556 896c-37.925926 0-68.740741-30.814815-68.740741-68.740741s30.814815-68.740741 68.740741-68.74074 68.740741 30.814815 68.74074 68.74074-30.90963 68.740741-68.74074 68.740741z m0-94.814815c-14.411852 0-26.074074 11.662222-26.074075 26.074074s11.662222 26.074074 26.074075 26.074074 26.074074-11.662222 26.074074-26.074074S413.392593 801.185185 399.075556 801.185185zM781.937778 896c-37.925926 0-68.740741-30.814815-68.740741-68.740741s30.814815-68.740741 68.740741-68.74074 68.740741 30.814815 68.740741 68.74074-30.814815 68.740741-68.740741 68.740741z m0-94.814815c-14.411852 0-26.074074 11.662222-26.074074 26.074074s11.662222 26.074074 26.074074 26.074074 26.074074-11.662222 26.074074-26.074074-11.662222-26.074074-26.074074-26.074074z" p-id="4861"></path></svg>